<?xml version="1.0" encoding="utf-8"?>
<!-- Generator: Adobe Illustrator 18.1.1, SVG Export Plug-In . SVG Version: 6.00 Build 0)  -->
<svg version="1.1" id="Layer_1" xmlns="http://www.w3.org/2000/svg" xmlns:xlink="http://www.w3.org/1999/xlink" x="0px" y="0px"
	 viewBox="0 0 612 792" enable-background="new 0 0 612 792" xml:space="preserve">
<path fill="#002C69" d="M164.8,213.7c5.7-10.7,14.4-18,27.1-21.2c3.6-2.2,7.5-2.8,11.6-3.5c18.3-2.6,36.1-6.9,53.5-12.7
	c6.1-2.2,12.6-3.4,18.8-5.4c1.6-0.4,3.3-0.4,4.9-0.6c11-1.7,11-1.7,15.2,8.1c1.2,2.8,1.5,5.9,4.2,8.1c0.5,0.5,0.9,1,1.2,1.6
	c4.4,11.3,11.1,16,23.2,16.3c6.6,1.8,13.4,2.5,20.2,2.4c5.6-0.1,10.9-0.2,15.5-3.4c2.1-1.4,4.8-1.9,7.3-0.5
	c2.9,3.5,3.2,7.6,3.3,11.7c-0.1,2.9,0.3,5.8-0.8,8.7c-0.3,0.6-0.8,1.2-1.3,1.6c-0.9,0.1,0.3,0.4-0.7,0.2c-4.6-0.7-7.7,1.6-10.6,4.3
	c0,0.4,0.3,0.7,0.8,0.8c11.9,3.1,12.8,0,12.6,20.1c0,4-1.9,7.3-4,10.6c-11.9,12.6-25.5,22.7-43.8,27.5c-12.3,3.1-19.1,13.2-24.9,23
	c-7.9,13.2-6.2,27.6-5.3,41.8c0.3,3.1,1.7,6.4-1.3,9.3c-5.7,3.1-11.8,4.2-18.4,4.1c-7.9-0.1-15.5,2.3-23.2,3.4
	c-15.3,2.2-30.6,2.3-46,2.3c-12.7,0-24.9-2.8-37.4-3.2c-3.8-0.1-7.5-0.7-10.9-2.8c-3.8-4.1-9.1-1.8-13.8-2.4c-1.6,0-3-0.2-4.4-0.8
	c-3.4-2.4-7.7-1.6-11.5-1.8c-1.5-0.1-2.8-0.4-4.1-1.1c-1.7-1.7-0.5-3.1,0.7-4.7c-4.9-0.7-11.5,3.4-14-3.8
	c6.7-10.1,13.6-20.2,19.6-30.8c2.4-4.2,4.5-8.3,5-13.1c5.7-7.3,7.4-16.1,10.2-24.4c3.6-10.6,7-21.2,9.9-32c2.8-10.3,4.6-20.8,8.3-31
	C162.6,217.8,163.2,215.6,164.8,213.7z"/>
<path fill="#49484A" d="M156.1,364.3c0.9,1.2,2.4,1.2,3.8,1.3c27.8,4.3,55.8,6.1,83.9,3.1c13-1.4,25.7-4.9,39-4.8
	c1.9,0,4.1-0.7,4.8-2.4c1.5-4.3,3,0.4,4.5-0.2c6.2,0.1,8.3,4.7,11.2,8.3c1.6,4.2-0.7,5.6-4.9,5.5c-7.1-0.2-14.3-0.1-21.4-0.1
	c-3.3,0-6.7-0.4-9.7,2.5c1.9,2.3,4.6,1.7,7,1.7c6,0.2,11.9-0.2,17.9,0.2c1.6,0.1,3.7,0.2,4,2c0.3,2.2-1.7,3-3.7,3.2
	c-4.6,0.8-9.4,1.4-14.2,1.9c-3.6,0.4-7,1.1-10.5,1.8c-2.2,0.5-5.7,0.5-5.6,3c0.3,3.4,3.8,2.2,6.4,2.2c2.9,0.4,7.1-1.8,7.7,3.1
	c-0.3,0.6-0.8,1.1-1.3,1.4c-1.5,0.7-3.2,0.8-4.8,1.2c-0.9,0.2-1.9,0.7-1.6,1.7s1.5,1,2.4,1.1c9,0.1,18-1.1,26.9-2.3
	c1.6-0.2,3.2-0.8,4.9-1c2.1-0.1,4.6-0.5,5.4,1.9c0.7,2-1.6,2.9-3,3.8c-4.5,2.6-10.3,3.4-14.7,8.1c7.7,0.5,13.8-2.3,20-4.2
	c2.9-1,5.6-2.3,8.5-3.4c2.2-0.8,4.6-1.6,5.8,1.4c0.1,0.5,0.3,0.8,0.4,1.3c3.2,2.8,3.7,6.3,3.7,9.9c1.7,8.8,1.6,17.7,3.8,26.3
	c1.5,6-1.9,12-2.5,18c-6.6,2.6-13.5,3-20.6,3.5c-25,1.7-50.1,2-75,4.4c-5.2,0.5-10.3,1.7-15.2-1.3c-3.7-2.5-7.3-5.2-11.2-7.3
	c-9.7-5.3-20.1-3.5-27.4,4.7c-2,1.4-4.4,1.7-6.7,1.4c-31.9-3.5-63.9-5.2-95.8-9.1c-0.5,0-0.9-0.2-1.3-0.4c-5-1.8-4.8-5.2-3.2-8.9
	l0,0c2-5.5,3.3-11.2,4.2-16.9c0.4-15.4,4.5-30.3,7.1-45.4c3.4-4.6,4.2-10.1,7.3-14.9c1.6-2.6,3-5.2,5.6-7.3
	c1.2-4.1,2.8-7.9,6.9-10.5c6.5-1.2,12,1.2,17.6,3.8c1.3,0.1,2.8,0.2,4.1,0.4c3.4,2.5,8.2-0.1,11.6,2.3c1.3,0.1,2.6,0.1,4.1,0.2
	C146,364.7,151.8,361,156.1,364.3z"/>
<path fill="#FBCBA7" d="M219.1,469.5c36.9-2.3,74-4.4,110.9-6.7c-5.2,2.6-7.5,5.8-2.6,10.6c0.8,0.7,0.3,2.4,0.4,3.7
	c1.5,6,0.3,12.4,1.6,18.3c2.9,12,2.2,24.4,5.4,36.3c0,1.3,0.3,2.6,0,3.8c-1.9,8.4,2.6,15.6,5.3,23.2c0.9,2.8,1.3,5.3,1.9,8.1
	c1.5,6.9,3.6,13.7,7.1,20c2.4,4.1,2.5,8.9,3.2,12.7c1.2,6.7,3.4,13.9,6.2,19.1c4.6,8.7,0,18.6,7.1,26.1c1.1,1.1,0.4,3.4,0.5,5
	c1.7,10.6,5,20.7,7,31.3c0,1.3,0.1,2.5,0.1,3.8c1.5,2.3,2,4.8,2,7.5c0,3.2,0.4,6.1,2.4,9.1c3.8,6,0.9,11.5-5.8,14.8
	c-7.8,3.7-16.7,1.9-24.6,4.6c-2.6,0.8-4-1.8-5.4-3.5c1.1-9.3-3.8-17.2-7.7-25.2c-6.5-13.7-13.4-27.2-20-40.9
	c-3.8-8.1-11-15.3-12.8-23.3c-3-13.2-13-23.1-17.7-35.5c-3.6-9.1-10.2-18-14-27.3c-4.8-11.5-12.7-21.5-17.2-33.1
	c-3.4-8.8-7.8-17.7-13-25.6c-7.5-11.7-11.6-24.8-20.6-35.6C218.9,470.4,219.1,469.9,219.1,469.5z"/>
<path fill="#FBCBA7" d="M76.4,457.4c32,3,64.2,5.9,96.2,8.8c2.6,0.2,5.2,0.4,7.8,0.5c-7.7,11.8-15.1,23.7-22.5,35.5
	c-3.4,5.4-6.9,11.4-9.9,17.2c-3.3,6.3-7.8,12.6-12.6,18.4c-7.1,8.8-13.5,18.3-17.2,28.7c-1.6,4.6-0.5,9.9-0.5,14.8
	c0,10.1-2,19.7-5.6,29.2c-2.5,6.9-1.9,14.4-5.8,21c-3.7,6.3-2.8,13.5-6.2,20.2c-2.4,4.6-3.7,11.5-6.1,15.9
	c-4.5,8.1-5.3,16.8-9.7,24.9c-3.6,6.6-7.3,14.1-7.9,21.9c-0.3,3-2.2,5-3.2,7.6c-11.9,0.1-23.4-1.6-34.4-5.3c3-4,1.1-8.4,1.7-12.6
	c0.3-0.4,0.7-0.7,0.7-1.1c0.5-14.5,4.5-28.7,6-43.3c1.2-12.1,3.3-24,4.9-36.2c-0.7-11.4,7-22,4.4-33.8c4-9,0.9-18.5,2.9-27.6
	c2.9-3.2,4-7.1,3.6-11.3c-0.7-7.9,1.2-15.6,2-23.4c-0.9-10.9,4.8-21.4,2.9-32.5c2.6-2.2,2.1-5,2.1-7.8c0.1-7.5-0.4-14.9,2.1-22.1
	c0-2.5,0-5,0-7.6C73.2,456.5,74.8,457,76.4,457.4z"/>
<path fill="#FBCBA7" d="M203.3,190.4c-3.6,1.4-7.4,2.2-11.4,2.2c0.8-1.8-0.4-1.9-2-2.3c-3.6-0.7-3.2-3.1-1.3-4.8
	c12.3-11.3,21.2-25,32.8-36.8c6.2-6.3,10.1-14.3,18.1-19.4c3.7-2.3,5.4-7.5,8.1-11.2c7.1-10,16.8-18,23.3-28.4
	c6-9.4,14.4-17.3,22.1-25.4c4.8-5,11.5-10.1,16.3-15.1C316.7,41.4,327,37.6,334,30c4.5-4.7,10.7-6,16.5-7.7c6.6-1.9,13.8-2,20.6-3.6
	c10.7-2.3,21.7-2.5,32.4-4.4c7.4-1.4,15.2-2.5,22.9-3c11.5-0.7,22.9-2.5,34.1-4.9c7.9-1.7,16.3-0.5,24.6-2.8
	c13.6-3.8,28.1-2.6,42.2-2.9c13.6-0.2,26.9,2.8,40.4,3.2c6,0.1,12.8,0.5,18.7,2.4c7.9,2.6,15.2,7.2,22.6,11.3c1.2,0.7,2,2.4,1.5,4.1
	c-0.7,1.9-2.5,2.6-4.5,2.4c-6.7-0.6-13.6,1.3-20.2-1.9c-2.5-1.2-6.1-0.5-9.1-0.7c-9-2.5-18.3-1.4-27.4-0.8c-4.5,0.4-4,3.5-1.3,6.1
	c1.9,3.1,6,3.4,8.9,4.9c2.5,1.3,2.8,2.8,2.4,4.7c-0.7,2.6-2.6,1.3-4.5,1.3c-9.4-0.1-17.2-4.3-24.7-8.5C517,21.9,503,19.1,488.4,22
	c-9.7,1.9-18.9,5.4-28.4,8.1c-14.4,4.1-28.7,8.2-43,12.3c-8.5,2.5-17.1,4.8-25.4,7.8c-5.8,2.2-12,2-18,3.6
	c-11.6,3-19.1,10.7-26.3,18.9c-12,13.6-22.5,28.1-33.3,42.5c-4.6,6.3-7,13.8-10.7,20.4c-4,6.9-6.4,14.4-10.9,21
	c-2,5.5-5.3,10.1-10.3,13.7c-1.3,1.7-3.8,0.6-5.4,1.8c-5.8,2.6-11.9,4.3-18.3,5.3c-11.8,1.2-22.5,6.9-34.3,7.5
	C216.1,185.2,209.8,187.8,203.3,190.4z"/>
<path fill="#FBCBA7" d="M268.8,395.2c-2.1,1.2-4.1,0.8-6.6,0.4c-2.6-0.5-3.6-1.6-3.8-3.6c-0.3-2.4,1.2-3.2,3.7-3.8
	c9.4-2.2,19.1-3.2,28.7-4.4c1.6-0.2,3.3,0.1,5-1.8c-7.9-1.9-15.3-0.4-22.6-0.7c-3.3-0.1-9,2.4-9.3-2.6c-0.1-4.4,5.4-4.7,9.4-4.8
	c8.3-0.1,16.7-0.2,24.9,0.4c4.5,0.4,4.9-1.1,4.1-4.2c6,0.2,10.7,3.8,16.7,4.4c13.6,1.3,26.9,3.6,40.8,0c20-5.2,36.4-15.3,52-26.9
	c4-3,8.5-5.4,11.6-9.4c2.8-3.5,2.4-6.1-0.5-9.3c-7.1-7.5-12.8-15.7-18.5-24.2c-7.3-10.6-13.1-22.1-25.1-29.2
	c-4.1-2.5-7.1-6.4-10.7-9.5c-1.7-1.4-3.4-3.1-2-5.6c-0.1-3.6,3.6-6.4,2.9-10.2c2.6-3.8,2-8.1,2.2-12.3c0.3-3.1,0.3-6.4,4-8.2
	c3.8-1.3,7.9-0.8,11.8-0.8c7.3-0.1,14.6,0.2,21.7-1.6c2.4-0.6,5.2-1.1,7.1,1.1c-1.5,1.3-5.7,1.2-0.5,4.4c9.4,6,16.4,13.9,20.2,24.4
	c2.5,7,9.5,12.5,12.2,19.5c2.8,7.3,10.2,12,12,19.7c1.2,4.8,6,8.1,8.2,12.7c1.3,2.5,2.4,5.6,3.6,8.4c3.8,8.5,7.4,17.1,6.2,26.8
	c-0.7,4.9-4.6,7.1-7.8,9c-9.9,5.8-20.6,10.5-32,14.1c-6.2,1.9-11.8,5.6-17.9,8.2c-14.4,5.9-29,11.3-43.3,17.5
	c-12,5.3-24.7,8.2-37.2,12.1c-5,1.6-10.6-1.2-15.1,2.3c-2.2-1.9-4-0.5-6.2,0.5c-8.3,3.6-16.7,7.2-26.1,7.8c-2.1,0.1-4.6,1-5.4-1.6
	c-0.7-2,1.6-2.6,3-3.6c5.3-3.7,12-4.7,19.2-9.5c-14.6,0.7-27,4.8-39.7,3.5c-2.8-4.9-2.8-4.9,5.6-6.3l0,0c7-4.6,16-2.8,23.3-6.4
	C288.8,396.1,278.5,393.4,268.8,395.2z"/>
<path fill="#FBCBA7" d="M330.2,156.5c4-3.4,9.5-5.5,9.8-11.5c0-1.2,0.9-2.6,1.9-3.4c6.2-4.9,9.8-10.8,9.8-18.6c0-2.4,4-2.6,6.1-4
	c4.5-3.1,9.4-5.9,14.2-8.9c6.9,3.5,13.9,3.4,21,0.6c6.2-2.4,12.7-0.4,19.1,0.2c11.8,1,23.7,1.7,34.7,6.4c7.1,3,14.2,6.4,16.7,13.9
	c0.8,5.8,0.9,11.7,0.1,17.4c-0.3,1-0.8,1.9-1.5,2.8c-3.2,3.1-7.8,4.4-10.7,7.9c-0.5,0.5-0.9,0.8-1.6,1.1c-3,1.1-5.4,3.4-8.2,4.8
	c-5,2.6-7.5,6.1-6.1,11.5c-1.1,2.8-3.8,3.8-6.5,5c-6.1,1.7-12,4-18.5,4c-1.6,0-3.3,0.4-4.9-0.2c-11.2-4.2-22.1-1-32.9,1.6
	c-2.2,0.7-4.1,2.8-6.9,2c-0.1-6-4-7.5-9.9-7.7c-12-0.5-20-7.2-21.8-17.7c-0.4-2.2-1.2-4.1-2.9-5.6
	C330.9,157.6,330.5,157,330.2,156.5z"/>
<path fill="#58453F" d="M372,186.2c0.5-0.8,1.2-2.5,1.7-2.5c11,1.1,21.4-5,33.1,0c6.7,2.9,14.8-1.9,22.2-3.6
	c1.1,1.4,0.4,2.5-0.9,3.2c-7,3.6-15.6,6-22.6,3.6c-8.1-2.6-14.7-0.6-21.7,0.1c2.6,8.8,12.7,12.9,16.3,21c1.2,2.6,3.2,0.7,4.5-0.4
	c6.2-4.6,13.4-7.5,20.4-10.6c2.1-1,4.4-2.3,6.6-0.6c2.4,1.8,0.8,3.8,0,5.9c-0.8,2.2-3,4.8-0.3,6.5c2.8,1.6,5.2-0.7,7.4-2.5
	c8.1-6.6,9.9-15,8.3-24.2c-1.1-6.1,0.9-10.1,7.7-11.8c3.2-0.8,4.9-3.4,7.5-4.8c10.6-5.6,18.8-13.3,23.2-23.1
	c-6.4,6.5-13.8,12.4-25.3,11.3c-0.5-1-0.4-1.8,0.4-2.6c0.4-0.5,0.9-1,1.3-1.4c4.1-6.4,2.4-12.9,0-19.2c-5.6-9.4-15.6-12.4-25.8-15.3
	c-11.2-3.1-23-2-34.4-4.6c-5.2-1.1-10.1,1.9-15,3.4c-6.5,1.9-11,0.4-14.7-4.3c10.7-8.8,23.6-14.1,37.4-16.9
	c23.6-4.9,45.5-1.8,65.1,11.9c1.6,1.2,3.7,2.4,5.6,2.5c10.6,0.2,16.9,6.5,22.9,13.1c3.3,3.7,3.2,17.4-0.3,21.9
	c-5.2,7-10.2,13.9-16.4,20.3c-3.6,3.6-8.2,8.7-4,15c2.4,3.6-0.9,4-3.7,3.6c-7.8-0.8-11.8,2-12.8,9.4c-2.2,15.7-16.8,21.9-29,29.8
	c-6.2,4.1-14.2,4.3-20.6,7.7c-13.6,2-27.4,3-41.3,2.8c-0.9,0.2-1.7,0.7-2.6,0.7c-3.6,0-7.9,0.1-9-3.5c-0.9-3.5,4.4-2.2,6-4.2
	l0.5-0.1c2-1.9,4.9-2.6,6.9-4.7c0.7-0.6,1.2-1.3,1.7-2c5.2-6.5,3.6-13,0-19.6c-0.5-2.3-1.7-4.1-3.8-5.5
	C372.9,190.2,371.8,188.4,372,186.2z"/>
<path fill="#49484A" d="M38.7,716.9c11.6,1,23.2,2.6,34.5,5.3c5.8,11.4,12,22.7,9.8,35.9c-0.4,2.4-1.3,4.4-3.3,6.7
	c-4.6,5.2-8.9,10.9-11.8,17.1c-2.1,4.3-5.3,5.8-9.5,6.7c-14.8,3.4-29.9,4.3-45.3,3c-13.8-1.2-14.7-13.8-9.5-21.3
	c3.8-5.4,8.9-10.1,9.7-16.9c2.8-4,3.8-8.7,5.7-13c3.6-2.4,3.4-6.4,4.9-9.7C26.8,724.6,32.5,720.5,38.7,716.9z"/>
<path fill="#49484A" d="M383.3,717.4c-0.3,3.2,1.5,6.1,3.3,8.4c6.6,7.7,11,16.6,17.3,24.4c4.8,5.9,7.7,13.7,7.9,21.6
	c0.1,6.1-3.4,10.9-10.1,12.4c-13.4,2.9-26.9,3.2-40.1-0.4c-7.1-1.9-12.6-5.9-15.3-12.3c-1.1-2.4-3.3-3.6-4.8-5.5
	c-1.7-2.4-6.4-2.4-6.4-6.4c-0.1-5.2-0.7-10.7,1.6-15.4c3.3-7,4.4-14.3,5.6-21.6c3.7-2.4,7.8-3.8,12.3-4.1c5.4-0.4,10.7-0.8,15.9-2.5
	C374.7,714.8,379.3,714.4,383.3,717.4z"/>
<path fill="#F3DECA" d="M280.4,169.5c5.3-3.4,6.9-9.3,11.5-13c-1.2,6.3,1.6,8.5,8.5,7.8c4.8-0.5,9.5-0.1,14.3-0.2
	c0.1,0.4,0.1,0.7,0.3,1.1c-1.5,2.6-4.2,3.2-7,3.2c-5.2,0-10.1,0.8-15.2,1c-2.6-0.8-5.2-1.9-7.8,0.2
	C283.5,170.9,281.8,170.7,280.4,169.5z"/>
<path fill="#FAE4D0" d="M547.6,26.8c-2.8,0.1-4.5-0.8-4.2-3.7c0.1-1.9,0.9-3.7,3-3.8c9.4-0.4,18.8-1,28.1,0.5
	c0.7,0.1,1.2,1.2,1.9,1.8c-7.5,0-15.1,0.1-22.6,0C549.5,21.4,547.5,22.9,547.6,26.8z"/>
<path fill="#002C69" d="M121.9,358.8c-6.4,0.6-11.6-3.1-17.6-3.8c0.7-2,2.6-2.9,4.5-3.8c3.4,3.8,7.8,3.2,12.2,2
	c1.6-0.5,2.9-2.9,4.6-0.7c1.5,1.9,0.3,3.6-2.2,4.3C122.6,356.8,122.3,358,121.9,358.8z"/>
<path fill="#F3DECA" d="M314.7,164.2c4.6-3.6,9.4-6.7,15.5-7.7l0.7,0.1c-2.5,5.6-8.3,8.7-15.9,8.1L314.7,164.2z"/>
<path fill="#EDB590" d="M315,164.5c6-1.6,11.9-3.1,15.9-8.1c5.4,0,4.9,4,5.3,7c1.2,9,9.4,16.1,19.5,16.5c1.7,0,3.3-0.1,5,0.1
	c6.4,0.7,7.5,2.8,5.7,9c2.4,3-1.5,6.7,1.5,9.7c0.4,1.4,0.8,3,0,4.4c-0.9,0.1-2.1-0.1-2.8,0.2c-13.4,8.2-27.4,4.9-41.5,2.5
	c-8.2-1.7-14.7-5.5-19.5-12.1c-1.5-2-1.3-4.6-3.4-6.1l0,0c-4.8-5.8-6-12.7-8.2-19.4C299.4,165.1,308.1,169.2,315,164.5z"/>
<path fill="#002C69" d="M369,223.9c0.7,3.5-4.1,1.9-5,4.4c3.4,1.3,7,2.3,10.7,2.5c-2.5,3.5-0.4,7.6-1.5,11.2
	c-0.8,2.9,0.4,6.6-4.1,7.8c0-1.1-0.1-2.2-0.1-3.2c0-11.8,0-11.8-12.3-14.9c-1.7-0.5-3.2-0.6-3.2-2.6s1.9-1.9,3.2-2.6
	C360.5,224.3,364.7,223.8,369,223.9z"/>
<path fill="#002C69" d="M292.2,168.3c2.4,2.2,4.5,4.6,4,7.8c-0.8,4.7,6,6.9,4.2,11.7c-6.7-2.6-6-9.4-8.5-14.1c-1.7-3.1-2.6-5-6.4-3
	c-3,1.7-6.2,1.7-9.5,1.4c1.5-0.8,2.8-1.7,4.2-2.5C284.4,169.9,287.9,164.8,292.2,168.3z"/>
<path fill="#002C69" d="M300.4,187.7c4.9,2.5,6.2,7.8,10.5,11.1c3.2,2.4,5.6,4.8,10.1,4.7c1.7-0.1,2.4,1.2,2.5,2.5
	C311.7,206,301.6,197.9,300.4,187.7z"/>
<path fill="#8D786F" d="M369.6,215c3.3,0.6,2.1,7.3,7.8,4.8c-2,2.3-4.2,4.3-7.9,4C369.2,220.9,368.8,217.9,369.6,215z"/>
<path fill="#49484A" d="M268.8,395.2c10.9-3.5,22.2-2.3,33.5-3.8c-8.6,4.2-18,5.5-27.4,6.7C275.3,392.8,270.3,397,268.8,395.2z"/>
<path fill="#49484A" d="M274.9,398.1c-2.2,1.8-8.6,0.6-5.6,6.3c-1.7-0.5-4.1-0.7-4-2.9c0.1-1.8,2.1-2.9,4-3.2
	C271.1,397.8,272.9,398.1,274.9,398.1z"/>
<path fill="#41332F" d="M460.5,153.8c11.1-2.6,21.3-6.6,27.1-17.3c2.5,4.3,0.8,6.5-0.9,8.4c-3.4,3.7-5.8,7.9-8.3,12
	c-1.7,2.8-3,5.4-7.3,4.8c-3.6-0.5-3,3.5-5.7,4.3c-4.8,1.6-7,6.6-13.1,7c-2.4,0.1-4.4,2.9-3.7,6.6c1.6,9.9,2.1,20-7.8,27.3
	c-0.1,0.1-0.3,0.4-0.4,0.6c-2.5,4-7.4,5.4-10.9,3.8c-4.5-2-0.3-6.1,0-9.4c0.1-1.4,3.6-2.4,1.6-4.3c-2.1-1.9-3.7,0.6-5.6,1.3
	c-9.1,3.6-17.7,7.8-25.4,14.7c-3.3-12.1-15.6-17.9-20.6-28.2c5.2-0.2,11.1-0.4,16.7-2.5c1.1-0.5,3-0.2,4.1,0.4
	c10.1,5.8,19.2,1.4,28.4-1.9c0.3-0.1,0.3-0.7,0.4-1.2c2-1.3,4.5-1.9,5.8-4c-2.5-9.3,7.1-10.6,11.9-15.1c0.9-0.8,2.6-1,3.7-1.8
	l-0.1-0.2C453.5,156.8,455.9,153.6,460.5,153.8z"/>
<path fill="#BB9682" d="M461.9,130.6c5.8,4.2,5.8,15.7,0,19.2C461.9,143.4,461.9,137,461.9,130.6z"/>
<path fill="#8C7162" d="M450.5,159.1c-2.8,2.2-5.6,4.3-8.5,6.4c-3.2,2.4-8.6,3.6-4.6,9.1c0.5,0.8-1.3,1.4-2.5,1.4
	c-2.8-4.4-2.1-7.8,3.3-10.2C442.5,163.8,445.2,159.4,450.5,159.1z"/>
<path fill="#BB9682" d="M460.5,153.8c-3.3,1.7-6.7,3.4-10.1,5c1.7-4.4,6.6-5.3,10.2-7.6C460.5,152.1,460.5,153,460.5,153.8z"/>
<path fill="#58453F" d="M437.9,109c-6.9,1.9-13.8,1.2-20.5,0.5c-1.5-0.1-3.7-0.5-3.4-2.4c0.3-1.7,2.2-1.2,3.6-1.3
	C424.5,105.4,431.4,106.1,437.9,109z"/>
<path fill="#8D786F" d="M378.8,218.5c0.1-7.3,0.4-14.5,0.5-21.9C384.2,204.1,385.5,211.4,378.8,218.5z"/>
</svg>
