<?xml version="1.0" standalone="no"?>
<!DOCTYPE svg PUBLIC "-//W3C//DTD SVG 20010904//EN"
 "http://www.w3.org/TR/2001/REC-SVG-20010904/DTD/svg10.dtd">
<svg version="1.0" xmlns="http://www.w3.org/2000/svg"
 width="512.000000pt" height="512.000000pt" viewBox="0 0 512.000000 512.000000"
 preserveAspectRatio="xMidYMid meet">

<g transform="translate(0.000000,512.000000) scale(0.100000,-0.100000)"
fill="#000000" stroke="none">
<path d="M2195 5099 c-422 -78 -857 -281 -1220 -568 -99 -78 -315 -291 -392
-386 -218 -270 -381 -615 -467 -990 -110 -479 -77 -1019 90 -1474 44 -120 167
-372 230 -471 204 -321 503 -620 824 -824 99 -63 351 -186 471 -230 652 -239
1418 -197 2034 112 383 192 738 510 973 875 134 207 247 481 292 713 21 106
40 404 26 404 -3 0 -43 -32 -89 -71 -200 -174 -420 -319 -662 -439 -344 -169
-627 -241 -945 -241 -165 0 -250 10 -400 47 -318 79 -646 282 -921 572 -247
259 -397 561 -450 907 -19 118 -16 388 5 523 72 471 324 1023 670 1465 86 111
91 106 -69 76z m-515 -482 c0 -2 -30 -48 -66 -103 -172 -258 -294 -594 -334
-914 -13 -108 -13 -380 0 -490 40 -332 166 -678 343 -942 318 -474 813 -805
1362 -912 199 -38 472 -49 662 -26 322 40 657 161 918 333 55 36 101 64 103
62 5 -5 -67 -143 -126 -240 -380 -626 -1052 -1029 -1789 -1074 -632 -39 -1236
181 -1695 618 -418 398 -664 927 -698 1501 -51 890 413 1714 1204 2136 92 49
116 59 116 51z"/>
</g>
</svg>
