<?xml version="1.0" standalone="no"?>
<!DOCTYPE svg PUBLIC "-//W3C//DTD SVG 20010904//EN"
 "http://www.w3.org/TR/2001/REC-SVG-20010904/DTD/svg10.dtd">
<svg version="1.0" xmlns="http://www.w3.org/2000/svg"
 width="512.000000pt" height="512.000000pt" viewBox="0 0 512.000000 512.000000"
 preserveAspectRatio="xMidYMid meet">

<g transform="translate(0.000000,512.000000) scale(0.100000,-0.100000)"
fill="#000000" stroke="none">
<path d="M2491 5103 c-39 -19 -51 -38 -227 -342 -167 -289 -231 -361 -392
-441 -114 -56 -270 -81 -386 -61 -37 7 -185 43 -329 81 -153 41 -282 70 -311
70 -44 0 -53 -4 -92 -44 -40 -39 -44 -48 -44 -91 0 -26 30 -162 70 -311 38
-145 75 -294 81 -331 20 -115 -5 -271 -61 -385 -83 -166 -148 -223 -485 -418
-176 -102 -274 -165 -289 -185 -29 -42 -29 -128 1 -170 14 -20 112 -83 288
-185 294 -170 373 -232 442 -343 52 -83 78 -147 97 -239 30 -143 25 -175 -75
-554 -39 -148 -69 -283 -69 -309 0 -43 4 -52 44 -91 39 -40 48 -44 92 -44 29
0 159 29 314 71 331 88 391 97 507 80 160 -23 298 -95 405 -210 47 -51 103
-137 218 -336 102 -176 165 -274 185 -289 22 -15 45 -21 85 -21 40 0 63 6 85
21 20 15 83 113 185 289 115 199 171 285 218 336 107 115 245 187 405 210 116
17 175 8 508 -80 147 -39 286 -71 309 -71 78 0 140 61 140 139 0 24 -32 163
-71 310 -88 333 -97 392 -80 508 23 160 95 298 211 405 50 47 137 103 335 218
176 102 274 165 289 185 15 22 21 45 21 85 0 40 -6 63 -21 85 -15 20 -113 83
-289 185 -294 170 -373 232 -442 343 -52 83 -78 147 -97 239 -30 143 -25 175
75 554 38 144 69 281 69 305 0 78 -62 139 -140 139 -23 0 -160 -31 -304 -69
-379 -100 -411 -105 -554 -75 -92 19 -156 45 -239 97 -111 69 -173 148 -343
442 -99 170 -165 275 -184 288 -39 27 -112 32 -155 10z m161 -590 c48 -82 112
-178 142 -215 148 -179 383 -307 621 -339 139 -18 254 -7 455 45 96 25 176 44
177 43 1 -2 -18 -81 -43 -177 -52 -201 -63 -316 -45 -455 32 -237 160 -473
337 -619 36 -29 132 -93 214 -142 83 -49 150 -91 150 -94 0 -3 -67 -45 -150
-94 -178 -106 -260 -171 -340 -271 -155 -196 -229 -420 -217 -660 4 -86 16
-149 51 -285 25 -96 44 -175 43 -177 -1 -1 -81 19 -177 43 -136 36 -199 47
-285 51 -240 12 -464 -62 -660 -217 -100 -80 -170 -167 -273 -342 -47 -82 -89
-148 -92 -148 -3 0 -43 64 -89 143 -98 166 -159 246 -244 320 -170 149 -371
231 -597 244 -127 7 -205 -4 -404 -58 -82 -21 -150 -38 -152 -36 -2 1 18 81
43 177 46 173 47 177 46 330 0 125 -4 170 -21 232 -50 182 -135 332 -262 458
-78 79 -146 126 -318 225 -56 32 -102 62 -102 65 0 3 46 33 102 65 172 99 240
146 318 225 127 126 212 276 262 458 17 62 21 107 21 232 1 153 0 157 -46 330
-25 96 -45 175 -44 177 2 1 81 -18 177 -43 119 -31 205 -47 270 -51 249 -15
504 70 694 233 95 81 155 159 257 332 46 78 86 142 89 142 3 0 45 -66 92 -147z"/>
<path d="M2390 3949 c-319 -40 -617 -191 -844 -429 -181 -191 -302 -420 -357
-680 -32 -150 -32 -410 0 -560 59 -277 182 -502 385 -706 207 -206 446 -334
733 -391 133 -26 395 -23 533 6 277 59 502 182 706 385 165 166 274 342 344
556 50 152 64 248 64 430 0 183 -14 278 -64 430 -71 218 -177 388 -344 556
-204 204 -434 329 -706 384 -120 25 -335 34 -450 19z m300 -299 c172 -23 343
-87 492 -186 90 -60 220 -190 281 -282 226 -338 256 -740 83 -1097 -117 -239
-286 -405 -528 -520 -297 -140 -633 -137 -933 9 -239 117 -405 286 -520 528
-108 230 -131 489 -65 743 31 119 126 304 207 405 234 289 622 446 983 400z"/>
</g>
</svg>
